<svg xmlns="http://www.w3.org/2000/svg" viewBox="0 0 1600 900">
  <defs>
    <linearGradient id="sky" x1="0" y1="0" x2="0" y2="1">
      <stop offset="0%" stop-color="#89c7ff"/>
      <stop offset="55%" stop-color="#5c9bff"/>
      <stop offset="100%" stop-color="#264e8e"/>
    </linearGradient>
    <linearGradient id="fog" x1="0" y1="0" x2="0" y2="1">
      <stop offset="0%" stop-color="#ffffff" stop-opacity="0.18"/>
      <stop offset="100%" stop-color="#ffffff" stop-opacity="0"/>
    </linearGradient>
  </defs>
  <rect width="1600" height="900" fill="url(#sky)"/>
  <circle cx="1230" cy="170" r="90" fill="#fff4bf" fill-opacity="0.9"/>
  <rect y="520" width="1600" height="380" fill="#355f2a"/>
  <rect y="560" width="1600" height="340" fill="#28491f"/>
  <rect x="0" y="500" width="220" height="120" fill="#447737"/>
  <rect x="220" y="470" width="200" height="150" fill="#4f873f"/>
  <rect x="420" y="520" width="190" height="100" fill="#39672e"/>
  <rect x="610" y="450" width="260" height="170" fill="#548f44"/>
  <rect x="870" y="490" width="190" height="130" fill="#457738"/>
  <rect x="1060" y="455" width="210" height="165" fill="#5a9647"/>
  <rect x="1270" y="500" width="170" height="120" fill="#417034"/>
  <rect x="1440" y="470" width="160" height="150" fill="#4a7c3a"/>
  <rect x="90" y="330" width="48" height="140" fill="#5d4024"/>
  <rect x="48" y="258" width="132" height="88" fill="#2e5c2f"/>
  <rect x="84" y="214" width="48" height="52" fill="#356b36"/>
  <rect x="1160" y="315" width="54" height="155" fill="#62452a"/>
  <rect x="1104" y="236" width="170" height="96" fill="#2b572d"/>
  <rect x="1150" y="190" width="74" height="54" fill="#356b36"/>
  <rect x="760" y="360" width="64" height="200" fill="#6b4b2d"/>
  <rect x="700" y="260" width="184" height="118" fill="#2d5a2e"/>
  <rect x="748" y="208" width="84" height="60" fill="#356d37"/>
  <rect y="0" width="1600" height="900" fill="url(#fog)"/>
</svg>
